<svg width="20" height="20" viewBox="0 0 20 20" fill="none" xmlns="http://www.w3.org/2000/svg">
<path fill-rule="evenodd" clip-rule="evenodd" d="M9.83827 0C4.40558 0 0 4.478 0 10C0 15.522 4.40558 20 9.83827 20C15.271 20 19.6765 15.522 19.6765 10C19.6765 4.478 15.271 0 9.83827 0ZM14.3993 6.8C14.2517 8.382 13.6103 12.218 13.2856 13.99C13.1479 14.74 12.8763 14.99 12.6127 15.016C12.042 15.07 11.6072 14.632 11.0543 14.264C10.1885 13.688 9.69857 13.328 8.85838 12.764C7.88636 12.114 8.51601 11.756 9.07089 11.172C9.2165 11.02 11.7331 8.692 11.7823 8.48C11.7882 8.454 11.7941 8.356 11.7371 8.304C11.68 8.252 11.5954 8.27 11.5324 8.284C11.4458 8.304 10.0626 9.234 7.38264 11.072C6.98911 11.346 6.63493 11.48 6.31617 11.472C5.96396 11.464 5.28906 11.27 4.7873 11.104C4.17143 10.9 3.68148 10.792 3.72477 10.448C3.74642 10.268 3.9904 10.084 4.45674 9.896C7.32558 8.626 9.23814 7.788 10.1944 7.384C12.9275 6.228 13.4942 6.028 13.8641 6.022C13.9448 6.02 14.1278 6.042 14.2458 6.138C14.3462 6.22 14.3737 6.33 14.3855 6.408C14.3954 6.484 14.4111 6.662 14.3993 6.8Z" fill="white"/>
</svg>
