<svg width="20" height="20" viewBox="0 0 20 20" fill="none" xmlns="http://www.w3.org/2000/svg">
<path d="M9.83827 0C8.54593 -1.28991e-07 7.26624 0.25869 6.07232 0.761291C4.8784 1.26389 3.79365 2.00056 2.88002 2.9292C1.9664 3.85784 1.24181 4.96027 0.747642 6.1735C0.253479 7.38673 -0.000571882 8.68699 9.66611e-07 10C7.10462e-07 12.6514 1.03639 15.1943 2.8813 17.0695C4.72621 18.9447 7.2286 19.9988 9.83827 20C12.4479 19.9988 14.9503 18.9447 16.7953 17.0695C18.6402 15.1943 19.6766 12.6514 19.6765 10C19.6771 8.68699 19.4231 7.38673 18.9289 6.1735C18.4347 4.96027 17.7102 3.85784 16.7965 2.9292C15.8829 2.00056 14.7981 1.26389 13.6042 0.761291C12.4103 0.25869 11.1306 -1.28991e-07 9.83827 0ZM13.8721 14.3996C13.6818 13.6635 13.2805 13.0013 12.7191 12.4972C12.1578 11.9932 11.4617 11.6699 10.7192 11.5685V14.3996H10.475C6.25358 14.3996 3.68935 11.4222 3.59341 6.47762H5.72155C5.79569 10.1108 7.42231 11.6438 8.66954 11.9672V6.47762H10.7192V9.6101C11.9228 9.47718 13.1831 8.05051 13.6061 6.47762H15.6209C15.4665 7.2854 15.1508 8.05245 14.6933 8.73144C14.2357 9.41042 13.6461 9.98692 12.9607 10.4253C13.7276 10.8306 14.4021 11.395 14.9408 12.0819C15.4794 12.7688 15.8701 13.5629 16.0875 14.4129L13.8721 14.3996Z" fill="white"/>
</svg>
