<svg width="20" height="20" viewBox="0 0 20 20" fill="none" xmlns="http://www.w3.org/2000/svg">
<path d="M1.61298 19.9682C1.6854 19.676 1.7636 19.381 1.83312 19.0888C2.04458 18.2007 2.25603 17.3127 2.47038 16.4275C2.49934 16.3147 2.43272 16.2482 2.37189 16.1816C2.11989 15.9155 1.90843 15.6176 1.70278 15.3167C1.23642 14.6312 0.865655 13.9022 0.581787 13.1212C0.28923 12.3141 0.11833 11.4839 0.0401213 10.6335C-0.0786397 9.36067 0.0690875 8.11102 0.445647 6.8932C0.694755 6.08614 1.04235 5.32247 1.50001 4.60508C1.82154 4.10175 2.17492 3.62445 2.57755 3.18766C3.12791 2.58887 3.74199 2.06529 4.42269 1.61692C5.08312 1.18013 5.7841 0.824324 6.52853 0.561089C7.41199 0.248678 8.31863 0.0606529 9.26003 0.0143698C10.6475 -0.0550549 11.9915 0.124292 13.2892 0.613158C14.2596 0.98053 15.1517 1.48675 15.9657 2.13761C16.7565 2.76822 17.4343 3.50007 17.9991 4.33606C18.7638 5.4671 19.262 6.71096 19.514 8.05606C19.6502 8.78791 19.7023 9.52266 19.6647 10.2632C19.6096 11.3971 19.3663 12.4935 18.9318 13.5464C18.5755 14.4142 18.1005 15.2126 17.5154 15.9444C16.8173 16.818 15.9918 17.5586 15.0388 18.1458C13.8019 18.9066 12.4666 19.3983 11.0154 19.5516C10.4911 19.6066 9.9668 19.6442 9.44541 19.6182C8.5156 19.5719 7.60317 19.4301 6.71681 19.1235C6.21569 18.95 5.73196 18.7417 5.25981 18.4987C5.14974 18.4408 5.06864 18.4524 4.96146 18.5016C4.46904 18.7301 3.97082 18.9442 3.4755 19.1698C2.86432 19.4446 2.25603 19.7223 1.64774 20C1.63615 19.9826 1.62457 19.9769 1.61298 19.9682ZM13.5789 15.6783C13.8251 15.6841 14.0655 15.6696 14.303 15.5915C14.6767 15.47 14.9924 15.256 15.2705 14.987C15.5804 14.689 15.8991 14.3997 16.0671 13.9832C16.2293 13.5782 16.0902 12.9534 15.6934 12.7596C15.4124 12.6207 15.1373 12.4703 14.8418 12.3604C14.2016 12.1203 13.5499 11.912 12.8982 11.698C12.8431 11.6806 12.8055 11.6806 12.7591 11.724C12.4405 12.0219 12.1161 12.3112 11.8033 12.6149C11.6932 12.722 11.5976 12.748 11.4557 12.6902C10.914 12.4645 10.4274 12.1492 9.97839 11.779C9.58445 11.455 9.21948 11.0963 8.88057 10.7144C8.39974 10.1735 7.97104 9.59787 7.57131 8.99619C7.53944 8.94701 7.54524 8.91808 7.58579 8.87759C7.86386 8.59989 8.12456 8.30194 8.42001 8.0416C8.7705 7.73208 8.81106 7.36182 8.61988 6.96262C8.38525 6.46797 8.12166 5.98778 7.85807 5.5076C7.68138 5.1894 7.50758 4.86542 7.27875 4.57904C7.10495 4.36209 7.07019 4.35341 6.81819 4.46333C6.78922 4.4778 6.75736 4.49226 6.72839 4.50673C6.14038 4.81046 5.63347 5.22411 5.17002 5.69273C4.84849 6.0196 4.72684 6.40723 4.77028 6.85849C4.78766 7.02915 4.80215 7.20272 4.83111 7.37339C4.91801 7.87093 5.0165 8.36558 5.19029 8.84287C5.36988 9.34042 5.59582 9.82061 5.84493 10.2863C6.00134 10.5756 6.17514 10.8533 6.35763 11.1223C6.68205 11.5996 7.03833 12.0509 7.43806 12.4645C7.67848 12.7133 7.92759 12.9534 8.18539 13.1848C8.66043 13.6129 9.17603 13.989 9.71769 14.3245C10.3549 14.7179 11.0241 15.0593 11.7337 15.3109C12.3362 15.5221 12.9387 15.6928 13.5789 15.6783Z" fill="white"/>
</svg>
