<svg width="109" height="302" viewBox="0 0 109 302" fill="none" xmlns="http://www.w3.org/2000/svg">
<path d="M66.9691 241.904L-2.93579e-06 215.61L-3.96988e-06 191.953L84.9867 228.574C87.9164 229.844 90.724 231.309 93.4095 232.969C96.0462 234.58 98.4144 236.509 100.514 238.755C102.565 241.001 105.521 243.687 106.742 246.812C107.914 249.937 108.5 253.672 108.5 258.018C108.5 259.092 108.476 260.41 108.427 261.973C108.378 263.535 108.305 264.78 108.207 265.708L89.7474 265.854C89.8939 265.269 89.9916 264.341 90.0404 263.071C90.0404 261.802 90.0404 260.874 90.0404 260.288C90.0404 257.407 89.6253 255.137 88.7953 253.477C87.9652 251.816 86.7933 250.498 85.2796 249.521C83.7171 248.496 81.8861 247.593 79.7865 246.812L66.9691 241.904ZM-1.03089e-06 259.189L51.808 234.946L76.0511 228.135L76.3441 244.468L0 282.773L-1.03089e-06 259.189Z" fill="white"/>
<path d="M-7.845e-06 103.301L16.2123 103.374L16.2123 151.348L106.962 151.348L106.962 173.247L-4.79075e-06 173.174L-7.845e-06 103.301ZM37.892 158.892L37.8919 133.989C37.8919 125.591 39.2836 118.364 42.0668 112.31C44.85 106.255 48.7562 101.592 53.7855 98.3203C58.8148 95.0488 64.6742 93.4131 71.3636 93.4131C76.4417 93.4131 81.0804 94.3408 85.2796 96.1963C89.43 98.0518 93.0433 100.762 96.1195 104.326C99.1468 107.842 101.491 112.09 103.151 117.07C104.811 122.051 106.962 127.69 106.962 133.989L106.962 173.247L-4.79075e-06 173.174L-5.7544e-06 151.128L88.5023 151.201L88.5023 133.989C88.5023 129.79 87.721 126.323 86.1585 123.589C84.596 120.854 82.5209 118.804 79.933 117.437C77.2962 116.021 74.391 115.312 71.2171 115.312C68.1898 115.312 65.4554 116.021 63.014 117.437C60.5238 118.804 58.5707 120.854 57.1546 123.589C55.7386 126.323 55.0306 129.79 55.0306 133.989L55.0306 158.892L37.892 158.892Z" fill="white"/>
<path d="M88.5023 -3.86856e-06L106.962 -4.67545e-06L106.962 56.7627L88.5023 56.7627L88.5023 -3.86856e-06ZM-1.01962e-05 49.5117L106.962 49.585L106.962 71.5576L-9.23573e-06 71.4844L-1.01962e-05 49.5117ZM42.433 7.39746L59.1322 7.39746L59.1322 56.7627L42.433 56.7627L42.433 7.39746ZM-1.23604e-05 0L16.2123 0.0732415L16.2123 56.7627L-9.88244e-06 56.6895L-1.23604e-05 0Z" fill="white"/>
</svg>
