<svg width="111" height="350" viewBox="0 0 111 350" fill="none" xmlns="http://www.w3.org/2000/svg">
<path d="M52.5 259.247L57.5735 259.247C65.7108 259.247 73.0147 260.345 79.4853 262.54C85.9559 264.736 91.4706 267.834 96.0294 271.835C100.539 275.836 103.995 280.618 106.397 286.18C108.799 291.693 110.471 297.817 110.471 304.55C110.471 311.235 108.799 317.358 106.397 322.92C103.995 328.434 100.539 333.216 96.0294 337.265C91.4706 341.315 85.9559 344.462 79.4853 346.707C73.0147 348.902 65.7108 350 57.5735 350L52.5 350C44.3137 350 37.0098 348.902 30.5882 346.707C24.1177 344.511 18.6029 341.413 14.0441 337.412C9.48529 333.362 6.0049 328.58 3.60294 323.067C1.20098 317.504 -1.68809e-06 311.381 -1.98028e-06 304.697C-2.2746e-06 297.963 1.20098 291.84 3.60294 286.326C6.0049 280.764 9.48529 275.982 14.0441 271.982C18.6029 267.932 24.1176 264.809 30.5882 262.613C37.0098 260.369 44.3137 259.247 52.5 259.247ZM57.5735 281.423L52.3529 281.423C46.6667 281.423 41.6667 281.935 37.3529 282.96C33.0392 283.984 29.4118 285.497 26.4706 287.497C23.5294 289.498 21.3235 291.937 19.8529 294.816C18.3333 297.695 17.5735 300.988 17.5735 304.697C17.5735 308.405 18.3333 311.698 19.8529 314.577C21.3235 317.407 23.5294 319.822 26.4706 321.823C29.4118 323.774 33.0392 325.262 37.3529 326.287C41.6667 327.312 46.6667 327.824 52.353 327.824L57.5735 327.824C63.2108 327.824 68.2108 327.312 72.5735 326.287C76.8873 325.262 80.5392 323.75 83.5294 321.749C86.4706 319.749 88.701 317.309 90.2206 314.431C91.7402 311.552 92.5 308.258 92.5 304.55C92.5 300.842 91.7402 297.549 90.2206 294.67C88.701 291.791 86.4706 289.376 83.5294 287.424C80.5392 285.473 76.8873 283.984 72.5735 282.96C68.2108 281.935 63.2108 281.423 57.5735 281.423Z" fill="white"/>
<path d="M2 169L109 169L109 191L2 191L2 169ZM2 106.298L64.3382 147.137L64.3382 173.997L44.7059 176.778L44.7059 158.847L2 132.939L2 106.298ZM109 128.913L60.6618 158.774L44.9265 143.551L109 102.859L109 128.913Z" fill="white"/>
<path d="M1.99999 15.6623L18.75 15.6623L18.75 68.6504L1.99999 68.6504L1.99999 15.6623ZM1.99999 -8.74231e-08L109 -4.76454e-06L109 21.9564L1.99999 21.9564L1.99999 -8.74231e-08ZM1.99999 71.4315L1.99999 49.5483L55.2206 52.2563C63.2598 52.6466 70.2451 53.4029 76.1765 54.5251C82.1078 55.5985 87.1569 57.0623 91.3235 58.9164C95.4412 60.7705 98.7745 63.0637 101.324 65.7961C103.824 68.4796 105.662 71.6511 106.838 75.3105C107.966 78.9699 109 83.1416 109 87.8257L109 93.2416L91.3235 93.2416L91.1029 90.4604C90.8578 88.0696 90.2206 85.9716 89.1912 84.1663C88.1618 82.361 86.6176 80.824 84.5588 79.5554C82.5 78.2381 79.8775 77.1646 76.6912 76.3352C73.4559 75.4569 69.5098 74.7738 64.8529 74.2859C60.1961 73.7492 54.7549 73.3832 48.5294 73.1881L1.99999 71.4315Z" fill="white"/>
</svg>
