<svg width="60" height="60" viewBox="0 0 60 60" fill="none" xmlns="http://www.w3.org/2000/svg">
<g clip-path="url(#clip0_3115_767)">
<path d="M31.0425 31.0905V43.8846L29.9133 44.9585L28.8357 43.8809V26.3743L24.9462 22.4848V40.043L22.7357 37.8363V20.2743L18.8573 16.3958V16.3921L18.8462 16.3811V39.4452L19.1931 39.7958L29.9096 50.5529L30.1458 50.3167L30.1495 50.3204L31.0425 49.4274V49.4311L34.9321 45.5415V27.2009L31.0425 31.0905Z" fill="white"/>
<path d="M37.139 16.37L32.2863 21.2227L27.4336 16.37H21.9277L32.2863 26.7249L35.0392 23.972L37.139 21.8685V43.3348L41.0322 39.4452V16.37H37.139Z" fill="white"/>
<path d="M0 29.9982C0 46.5379 13.4547 59.9926 29.9908 60H30.0092C46.5453 59.9963 60 46.5379 60 30.0018C60 13.4584 46.5416 0 30.0018 0C13.4584 0 0 13.4584 0 29.9982ZM57.2397 29.9982C57.2397 45.0175 45.0212 57.236 30.0018 57.236C14.9825 57.236 2.76401 45.0175 2.76401 29.9982C2.76401 14.9788 14.9825 2.76032 30.0018 2.76032C45.0175 2.76032 57.2397 14.9788 57.2397 29.9982Z" fill="white"/>
<path d="M48.1174 18.3037C48.1322 18.8572 48.1543 19.5215 48.1801 20.2928C48.206 21.064 48.2207 21.6249 48.2207 21.9792C48.2207 22.1379 48.2392 22.2154 48.2761 22.2154C48.3056 22.2154 48.3794 22.1231 48.5012 21.9349C48.6377 21.7246 48.7337 21.4958 48.7927 21.2448C48.8518 20.9939 48.8813 20.6987 48.8813 20.3629V20.3075H49.9146C49.9293 20.7061 49.9441 21.1231 49.9588 21.5659C49.9736 22.0087 49.981 22.3704 49.981 22.6545V22.935C49.981 23.138 49.9957 23.2376 50.0253 23.2376C50.0622 23.2007 50.088 23.1712 50.1028 23.149C50.147 23.0826 50.2024 22.983 50.2725 22.8575C50.5936 22.2597 50.7559 21.2559 50.7559 19.8462V17.7243C50.7559 17.6727 50.767 17.5767 50.7855 17.4439C50.8039 17.3073 50.815 17.2114 50.815 17.1523C50.815 16.9641 50.6157 16.7759 50.2135 16.584C49.8112 16.3922 49.4976 16.2962 49.2651 16.2962C49.1322 16.2962 49.0621 16.3368 49.0621 16.418C49.0621 16.4918 49.2023 16.6874 49.4902 17.001C49.7743 17.3147 49.9182 17.5546 49.9182 17.7206V19.5067H48.885V18.2262C48.885 18.1155 48.896 17.979 48.9182 17.8203C48.9182 17.6468 48.7411 17.4697 48.3831 17.2815C48.0288 17.0933 47.7447 17.001 47.5343 17.001C47.4162 17.001 47.3535 17.0379 47.3535 17.1118C47.3535 17.1856 47.4716 17.3664 47.7115 17.6505C47.955 17.9384 48.0879 18.1524 48.1174 18.3037Z" fill="white"/>
<path d="M47.4677 25.603C47.8404 25.9389 48.2869 26.1086 48.8035 26.1086C49.191 26.1086 49.56 25.9573 49.9106 25.6547C50.2575 25.3521 50.4309 24.9757 50.4309 24.5255C50.4309 24.031 50.2206 23.614 49.8036 23.2782C49.4198 22.9719 48.9917 22.8169 48.512 22.8169C48.0249 22.8169 47.6374 22.9719 47.3459 23.2782C47.0543 23.5845 46.9067 23.9867 46.9067 24.4812C46.9067 24.8908 47.0913 25.2672 47.4677 25.603ZM47.9252 23.7099C48.1577 23.5734 48.4234 23.5033 48.7223 23.5033C49.0951 23.5033 49.3829 23.6103 49.5748 23.828C49.7409 24.0162 49.822 24.2487 49.822 24.5255C49.822 24.7801 49.7298 24.9757 49.5453 25.1085C49.3608 25.2414 49.1467 25.3115 48.8995 25.3115C48.6006 25.3115 48.3238 25.2414 48.0692 25.0975C47.7407 24.9093 47.5747 24.651 47.5747 24.3225C47.5784 24.0531 47.6965 23.8502 47.9252 23.7099Z" fill="white"/>
<path d="M43.8184 21.2116C44.276 21.1157 44.6782 20.9386 45.0325 20.6839C45.2798 20.4957 45.527 20.3075 45.7743 20.1119C45.9477 20.2153 46.1211 20.4035 46.302 20.6729C46.6083 21.1305 46.8186 21.3593 46.9293 21.3593C47.0253 21.3593 47.1064 21.3039 47.1692 21.1969C47.2319 21.0899 47.2651 20.9644 47.2651 20.8205C47.2651 20.6101 47.2098 20.4588 47.0954 20.3592C47.0363 20.3075 46.8813 20.2448 46.6341 20.1673C46.5234 20.1304 46.4127 20.0787 46.3093 20.0086C46.206 19.9422 46.1064 19.8795 46.0178 19.8167L46.4902 19.3665C46.5714 19.2853 46.6267 19.23 46.6488 19.1968C46.6858 19.1451 46.7042 19.0861 46.7042 19.0159C46.7042 18.8425 46.5898 18.6322 46.3573 18.3886C46.1248 18.1413 45.9219 17.99 45.7521 17.9384C45.6414 17.9015 45.5344 17.883 45.4384 17.883C45.3351 17.883 45.2798 17.9199 45.2798 17.9937C45.3683 18.1819 45.4606 18.3591 45.5491 18.5325C45.6377 18.706 45.6857 18.8536 45.6857 18.9827C45.6857 19.2226 45.4089 19.6138 44.8554 20.1636C44.3609 20.6507 43.9697 20.9644 43.6745 21.1083C43.6524 21.1157 43.597 21.1489 43.5047 21.208C43.49 21.2153 43.4641 21.2301 43.4272 21.2522L43.4715 21.2744L43.8184 21.2116Z" fill="white"/>
<path d="M50.2172 29.8395C49.8113 29.6033 49.4829 29.4852 49.2282 29.4852C49.04 29.4852 48.9478 29.5369 48.9478 29.6439C48.9478 29.7103 49.0954 29.9022 49.3869 30.2159C49.6784 30.5296 49.8519 30.7916 49.9035 31.0019V33.2382H48.9478V31.8691V31.4411C48.9478 31.2307 48.7596 31.0462 48.3832 30.8838C48.0067 30.7215 47.6931 30.644 47.4421 30.644C47.2502 30.644 47.1543 30.6956 47.1543 30.8026C47.1543 30.8543 47.3019 31.0204 47.5971 31.3008C47.8923 31.5813 48.0695 31.8064 48.1322 31.9688L48.2097 36.5299C48.2097 36.5742 48.2134 36.6591 48.2208 36.7772C48.2282 36.8953 48.2429 36.958 48.2651 36.958C48.3315 36.958 48.4385 36.7513 48.5787 36.3417C48.7227 35.9284 48.8038 35.6516 48.826 35.5114C48.8703 35.2937 48.8998 35.0538 48.9146 34.7881C48.9293 34.5224 48.9404 34.2641 48.9478 34.0205H49.9035V36.5373C49.9035 36.6886 49.9109 36.958 49.9257 37.3455C49.9404 37.7366 49.9478 38.054 49.9478 38.3013V38.5928C49.9478 38.7515 49.9552 38.9065 49.97 39.0578C49.9847 39.2127 50.0069 39.2866 50.0364 39.2866C50.0954 39.2866 50.2098 39.0024 50.3796 38.4378C50.5493 37.8732 50.6416 37.4525 50.6674 37.1757C50.6896 37.0576 50.7043 36.9248 50.7117 36.7809C50.7191 36.6406 50.7228 36.4967 50.7228 36.3528V36.2199V36.0723V35.9026V35.7218V35.5188V35.3048L50.756 31.061C50.756 30.9945 50.7671 30.9023 50.7892 30.7916C50.8114 30.6809 50.8224 30.5997 50.8224 30.5554C50.8261 30.3118 50.6231 30.072 50.2172 29.8395Z" fill="white"/>
<path d="M45.5563 32.0795C45.0987 32.0795 44.7259 32.2086 44.4381 32.4669C44.1503 32.7253 44.0063 33.0648 44.0063 33.4818C44.0063 34.0058 44.1872 34.4302 44.5451 34.7512C44.8809 35.0501 45.309 35.2014 45.8256 35.2014C46.2611 35.2014 46.6006 35.076 46.8478 34.8213C47.0951 34.5667 47.2169 34.2014 47.2169 33.7216C47.2169 33.3231 47.1025 32.9725 46.87 32.6662C46.5711 32.2714 46.1356 32.0795 45.5563 32.0795ZM46.3607 34.2752C46.1984 34.4302 45.9696 34.504 45.6707 34.504C45.3422 34.504 45.0765 34.4006 44.8736 34.1903C44.7001 34.0095 44.6152 33.8176 44.6152 33.6072C44.6152 33.3748 44.7038 33.1755 44.8846 33.0131C45.0655 32.847 45.3053 32.7659 45.6042 32.7659C45.9327 32.7659 46.191 32.8803 46.3792 33.1127C46.5305 33.3009 46.6043 33.4928 46.6043 33.6958C46.6006 33.9283 46.5231 34.1202 46.3607 34.2752Z" fill="white"/>
<path d="M12.8126 24.9499V22.2523H13.8422V21.5622H11.0376V22.2523H12.0672V24.9499H12.8126Z" fill="white"/>
<path d="M12.067 28.4519V29.7841H12.8125V28.4372L14.1151 26.4001H13.2664L12.4471 27.7582L11.639 26.4001H10.7681L12.067 28.4519Z" fill="white"/>
<path d="M11.2334 31.2344V34.6184H11.9788V33.6035H12.5434C13.3036 33.6035 13.9125 33.1976 13.9125 32.4153V32.4042C13.9125 31.7141 13.4254 31.2344 12.6172 31.2344H11.2334ZM13.156 32.419V32.43C13.156 32.7216 12.9383 32.943 12.5656 32.943H11.9751V31.906H12.5508C12.9235 31.9097 13.156 32.0868 13.156 32.419Z" fill="white"/>
<path d="M12.4399 37.5041L11.5506 36.0723H10.7461V39.4563H11.4768V37.2606L12.4215 38.6924H12.4399L13.392 37.2458V39.4563H14.1338V36.0723H13.3293L12.4399 37.5041Z" fill="white"/>
<path d="M13.3883 19.0454H12.8237V16.4106H12.082V19.0454H11.4915V16.4106H10.7461V19.0454V19.7909H11.4915H12.082H12.8237H13.3883H14.1264H14.1338V16.4106H13.3883V19.0454Z" fill="white"/>
</g>
<defs>
<clipPath id="clip0_3115_767">
<rect width="60" height="60" fill="white"/>
</clipPath>
</defs>
</svg>
