<svg width="686" height="126" fill="none" xmlns="http://www.w3.org/2000/svg"><g clip-path="url(#a)" fill="#fff"><path d="M560.412 0h29.774l32.999 53.271L656.226 0H686v126h-27.458V43.77l-35.357 53.81h-.703l-34.984-53.27V126h-27.086V0ZM431.598 0h51.319c29.981 0 48.093 17.84 48.093 43.563v.373c0 29.166-22.62 44.268-50.781 44.268h-21.007V126h-27.624V0Zm49.499 63.56c13.812 0 21.876-8.256 21.876-19.085v-.373c0-12.405-8.601-19.084-22.455-19.084H459.18v38.5h21.917v.042ZM329.54 76.338 281.24 0h32.296l29.981 50.574L374.035 0h31.387l-48.259 75.8V126H329.54V76.338ZM198.204 25.557h-38.21V0h104.043v25.557h-38.21V126h-27.623V25.557ZM112.603 0v100.443H83.905V0H56.28v100.443H27.624V0H0v126h140.227V0h-27.624Z"/></g><defs><clipPath id="a"><path fill="#fff" d="M0 0h686v126H0z"/></clipPath></defs></svg>